<svg width="124" height="124" viewBox="0 0 124 124" fill="none" xmlns="http://www.w3.org/2000/svg">
<path d="M82.3128 93.1792L82.3128 30.6975L109.479 30.6975L109.479 93.1792L82.3128 93.1792Z" fill="white"/>
<path d="M88.0177 28.5243C79.0837 28.5243 70.5156 32.0447 64.1982 38.311C57.8809 44.5774 54.3319 53.0764 54.3319 61.9384C54.3319 70.8004 57.8809 79.2994 64.1982 85.5657C70.5155 91.8321 79.0837 95.3525 88.0177 95.3525L88.0177 61.9384L88.0177 28.5243Z" fill="white"/>
<path fill-rule="evenodd" clip-rule="evenodd" d="M96.4391 61.8026C96.4391 42.6733 80.9318 27.166 61.8025 27.166C42.6733 27.166 27.166 42.6733 27.166 61.8026C27.166 80.9318 42.6733 96.4391 61.8025 96.4391C80.9318 96.4391 96.4391 80.9318 96.4391 61.8026ZM123.605 61.8025C123.605 27.6699 95.9351 3.43594e-06 61.8025 4.92792e-06C27.6699 6.4199e-06 -4.19346e-06 27.67 -2.70148e-06 61.8026C-1.20949e-06 95.9352 27.6699 123.605 61.8025 123.605C95.9352 123.605 123.605 95.9352 123.605 61.8025Z" fill="white"/>
</svg>
