<svg width="171" height="248" viewBox="0 0 171 248" fill="none" xmlns="http://www.w3.org/2000/svg">
<path d="M106.313 93.1792L106.313 30.6975L133.479 30.6975L133.479 93.1792L106.313 93.1792Z" fill="white"/>
<path d="M112.018 28.5243C103.084 28.5243 94.5156 32.0447 88.1982 38.311C81.8809 44.5774 78.3319 53.0764 78.3319 61.9384C78.3319 70.8004 81.8809 79.2994 88.1982 85.5657C94.5155 91.8321 103.084 95.3525 112.018 95.3525L112.018 61.9384L112.018 28.5243Z" fill="white"/>
<path fill-rule="evenodd" clip-rule="evenodd" d="M120.439 61.8026C120.439 42.6733 104.932 27.166 85.8025 27.166C66.6733 27.166 51.166 42.6733 51.166 61.8026C51.166 80.9318 66.6733 96.4391 85.8025 96.4391C104.932 96.4391 120.439 80.9318 120.439 61.8026ZM147.605 61.8025C147.605 27.6699 119.935 1.7074e-06 85.8025 3.19938e-06C51.6699 4.69137e-06 24 27.67 24 61.8026C24 95.9352 51.6699 123.605 85.8025 123.605C119.935 123.605 147.605 95.9352 147.605 61.8025Z" fill="white"/>
<path d="M68.8466 180.477H51.8011C51.5739 178.727 51.108 177.148 50.4034 175.739C49.6989 174.33 48.767 173.125 47.608 172.125C46.4489 171.125 45.0739 170.364 43.483 169.841C41.9148 169.295 40.1761 169.023 38.267 169.023C34.8807 169.023 31.9602 169.852 29.5057 171.511C27.0739 173.17 25.1989 175.568 23.8807 178.705C22.5852 181.841 21.9375 185.636 21.9375 190.091C21.9375 194.727 22.5966 198.614 23.9148 201.75C25.2557 204.864 27.1307 207.216 29.5398 208.807C31.9716 210.375 34.8466 211.159 38.1648 211.159C40.0284 211.159 41.7216 210.92 43.2443 210.443C44.7898 209.966 46.142 209.273 47.3011 208.364C48.483 207.432 49.4489 206.307 50.1989 204.989C50.9716 203.648 51.5057 202.136 51.8011 200.455L68.8466 200.557C68.5511 203.648 67.6534 206.693 66.1534 209.693C64.6761 212.693 62.642 215.432 60.0511 217.909C57.4602 220.364 54.3011 222.318 50.5739 223.773C46.8693 225.227 42.6193 225.955 37.8239 225.955C31.5057 225.955 25.8466 224.568 20.8466 221.795C15.8693 219 11.9375 214.932 9.05114 209.591C6.16477 204.25 4.72159 197.75 4.72159 190.091C4.72159 182.409 6.1875 175.898 9.11932 170.557C12.0511 165.216 16.017 161.159 21.017 158.386C26.017 155.614 31.6193 154.227 37.8239 154.227C42.0511 154.227 45.9602 154.818 49.5511 156C53.142 157.159 56.3011 158.864 59.0284 161.114C61.7557 163.341 63.9716 166.08 65.6761 169.33C67.3807 172.58 68.4375 176.295 68.8466 180.477ZM95.3778 155.182V225H78.5028V155.182H95.3778ZM131.778 225H105.972V155.182H131.744C138.858 155.182 144.983 156.58 150.119 159.375C155.278 162.148 159.256 166.148 162.051 171.375C164.847 176.58 166.244 182.807 166.244 190.057C166.244 197.33 164.847 203.58 162.051 208.807C159.278 214.034 155.312 218.045 150.153 220.841C144.994 223.614 138.869 225 131.778 225ZM122.847 210.614H131.131C135.04 210.614 138.347 209.955 141.051 208.636C143.778 207.295 145.835 205.125 147.222 202.125C148.631 199.102 149.335 195.08 149.335 190.057C149.335 185.034 148.631 181.034 147.222 178.057C145.813 175.057 143.733 172.898 140.983 171.58C138.256 170.239 134.892 169.568 130.892 169.568H122.847V210.614Z" fill="white"/>
</svg>
