<svg width="161" height="66" viewBox="0 0 161 66" fill="none" xmlns="http://www.w3.org/2000/svg">
<path d="M29.3011 44.3915L29.3011 22.1497L38.9714 22.1497L38.9714 44.3915L29.3011 44.3915Z" fill="#2B3674"/>
<path d="M31.3319 21.3761C28.1516 21.3761 25.1016 22.6292 22.8528 24.8599C20.604 27.0905 19.3407 30.116 19.3407 33.2706C19.3407 36.4252 20.604 39.4506 22.8528 41.6813C25.1016 43.9119 28.1516 45.1651 31.3319 45.1651L31.3319 33.2706L31.3319 21.3761Z" fill="#2B3674"/>
<path fill-rule="evenodd" clip-rule="evenodd" d="M34.3297 33.2222C34.3297 26.4127 28.8095 20.8926 22 20.8926C15.1905 20.8926 9.67033 26.4127 9.67033 33.2222C9.67033 40.0317 15.1905 45.5519 22 45.5519C28.8095 45.5519 34.3297 40.0317 34.3297 33.2222ZM44 33.2222C44 21.072 34.1503 11.2222 22 11.2222C9.84973 11.2222 -1.49276e-06 21.072 -9.6165e-07 33.2222C-4.30546e-07 45.3725 9.84973 55.2222 22 55.2222C34.1503 55.2222 44 45.3725 44 33.2222Z" fill="#2B3674"/>
<path d="M95.2855 27.0284H85.3423C85.2098 26.0076 84.938 25.0862 84.527 24.2642C84.116 23.4422 83.5724 22.7396 82.8963 22.1562C82.2202 21.5729 81.4181 21.1288 80.4901 20.8239C79.5753 20.5057 78.5611 20.3466 77.4474 20.3466C75.4721 20.3466 73.7685 20.8305 72.3366 21.7983C70.9181 22.7661 69.8243 24.1648 69.0554 25.9943C68.2997 27.8239 67.9219 30.0379 67.9219 32.6364C67.9219 35.3409 68.3063 37.608 69.0753 39.4375C69.8575 41.2538 70.9512 42.6259 72.3565 43.554C73.7751 44.4687 75.4522 44.9261 77.3878 44.9261C78.4749 44.9261 79.4626 44.7869 80.3509 44.5085C81.2524 44.2301 82.0412 43.8258 82.7173 43.2955C83.4067 42.7519 83.9702 42.0956 84.4077 41.3267C84.8584 40.5445 85.17 39.6629 85.3423 38.6818L95.2855 38.7415C95.1132 40.5445 94.5895 42.321 93.7145 44.071C92.8527 45.821 91.6662 47.4186 90.1548 48.8636C88.6435 50.2955 86.8007 51.4356 84.6264 52.2841C82.4654 53.1326 79.9863 53.5568 77.1889 53.5568C73.5033 53.5568 70.2022 52.7481 67.2855 51.1307C64.3821 49.5 62.0885 47.1269 60.4048 44.0114C58.7211 40.8958 57.8793 37.1042 57.8793 32.6364C57.8793 28.1553 58.7344 24.357 60.4446 21.2415C62.1548 18.1259 64.4683 15.7595 67.3849 14.142C70.3016 12.5246 73.5696 11.7159 77.1889 11.7159C79.6548 11.7159 81.9351 12.0606 84.0298 12.75C86.1245 13.4261 87.9673 14.4205 89.5582 15.733C91.1491 17.0322 92.4418 18.6297 93.4361 20.5256C94.4304 22.4214 95.0469 24.589 95.2855 27.0284ZM110.762 12.2727V53H100.918V12.2727H110.762ZM131.996 53H116.942V12.2727H131.976C136.125 12.2727 139.698 13.0881 142.695 14.7188C145.704 16.3362 148.024 18.6695 149.655 21.7188C151.286 24.7547 152.101 28.3873 152.101 32.6165C152.101 36.8589 151.286 40.5047 149.655 43.554C148.037 46.6032 145.724 48.9432 142.714 50.5739C139.705 52.1913 136.132 53 131.996 53ZM126.786 44.608H131.618C133.898 44.608 135.827 44.2235 137.405 43.4545C138.996 42.6723 140.196 41.4062 141.004 39.6562C141.826 37.893 142.237 35.5464 142.237 32.6165C142.237 29.6866 141.826 27.3532 141.004 25.6165C140.182 23.8665 138.969 22.607 137.365 21.8381C135.774 21.0559 133.812 20.6648 131.479 20.6648H126.786V44.608Z" fill="#2B3674"/>
</svg>
