<svg width="16" height="16" viewBox="0 0 16 16" fill="none" xmlns="http://www.w3.org/2000/svg">
<path opacity="0.3" d="M4 13.3333H12V6.66667H4V13.3333ZM8 8.66667C8.73333 8.66667 9.33333 9.26667 9.33333 10C9.33333 10.7333 8.73333 11.3333 8 11.3333C7.26667 11.3333 6.66667 10.7333 6.66667 10C6.66667 9.26667 7.26667 8.66667 8 8.66667Z" fill="#EB5A43"/>
<path d="M12 5.33334H11.3334V4.00001C11.3334 2.16001 9.84002 0.666672 8.00002 0.666672C6.16002 0.666672 4.66669 2.16001 4.66669 4.00001H6.00002C6.00002 2.89334 6.89335 2.00001 8.00002 2.00001C9.10669 2.00001 10 2.89334 10 4.00001V5.33334H4.00002C3.26669 5.33334 2.66669 5.93334 2.66669 6.66667V13.3333C2.66669 14.0667 3.26669 14.6667 4.00002 14.6667H12C12.7334 14.6667 13.3334 14.0667 13.3334 13.3333V6.66667C13.3334 5.93334 12.7334 5.33334 12 5.33334ZM12 13.3333H4.00002V6.66667H12V13.3333ZM8.00002 11.3333C8.73335 11.3333 9.33335 10.7333 9.33335 10C9.33335 9.26667 8.73335 8.66667 8.00002 8.66667C7.26669 8.66667 6.66669 9.26667 6.66669 10C6.66669 10.7333 7.26669 11.3333 8.00002 11.3333Z" fill="#EB5A43"/>
</svg>
