<svg width="21" height="26" viewBox="0 0 21 26" fill="none" xmlns="http://www.w3.org/2000/svg">
<path opacity="0.3" d="M5.83533 17.0533V17.6667H6.44866L12.4887 11.6267L11.8753 11.0133L5.83533 17.0533Z" fill="#0061F4"/>
<path d="M16.3087 9.69333C16.5687 9.43333 16.5687 9.01333 16.3087 8.75333L14.7487 7.19333C14.6153 7.06 14.4487 7 14.2753 7C14.102 7 13.9353 7.06667 13.8087 7.19333L12.5887 8.41333L15.0887 10.9133L16.3087 9.69333ZM4.50201 16.5V19H7.00201L14.3753 11.6267L11.8753 9.12667L4.50201 16.5ZM6.44868 17.6667H5.83535V17.0533L11.8753 11.0133L12.4887 11.6267L6.44868 17.6667Z" fill="#373380"/>
</svg>
